<svg width="35" height="35" viewBox="0 0 35 35" fill="none" xmlns="http://www.w3.org/2000/svg">
<path d="M20.8477 17.4996C20.8477 19.3496 19.348 20.8492 17.498 20.8492C15.6481 20.8492 14.1484 19.3496 14.1484 17.4996C14.1484 15.6496 15.6481 14.1499 17.498 14.1499C19.348 14.1499 20.8477 15.6496 20.8477 17.4996Z" fill="#231F20"/>
<path d="M25.3336 11.5731C25.1726 11.1368 24.9157 10.7419 24.582 10.4177C24.2578 10.0839 23.8631 9.82704 23.4265 9.66602C23.0724 9.5285 22.5405 9.36482 21.5608 9.32022C20.501 9.27189 20.1832 9.26147 17.5001 9.26147C14.8167 9.26147 14.499 9.27162 13.4394 9.31995C12.4597 9.36482 11.9275 9.5285 11.5737 9.66602C11.1371 9.82704 10.7421 10.0839 10.4182 10.4177C10.0844 10.7419 9.82755 11.1366 9.66627 11.5731C9.52875 11.9272 9.36506 12.4594 9.32047 13.4392C9.27213 14.4987 9.26172 14.8165 9.26172 17.4999C9.26172 20.183 9.27213 20.5007 9.32047 21.5606C9.36506 22.5403 9.52875 23.0722 9.66627 23.4263C9.82755 23.8629 10.0842 24.2576 10.418 24.5818C10.7421 24.9155 11.1368 25.1724 11.5734 25.3334C11.9275 25.4712 12.4597 25.6349 13.4394 25.6795C14.499 25.7278 14.8164 25.738 17.4998 25.738C20.1835 25.738 20.5012 25.7278 21.5605 25.6795C22.5403 25.6349 23.0724 25.4712 23.4265 25.3334C24.3029 24.9954 24.9956 24.3027 25.3336 23.4263C25.4712 23.0722 25.6348 22.5403 25.6797 21.5606C25.728 20.5007 25.7382 20.183 25.7382 17.4999C25.7382 14.8165 25.728 14.4987 25.6797 13.4392C25.6351 12.4594 25.4714 11.9272 25.3336 11.5731ZM17.5001 22.6597C14.6501 22.6597 12.3398 20.3496 12.3398 17.4996C12.3398 14.6496 14.6501 12.3395 17.5001 12.3395C20.3498 12.3395 22.6601 14.6496 22.6601 17.4996C22.6601 20.3496 20.3498 22.6597 17.5001 22.6597ZM22.8642 13.3414C22.1982 13.3414 21.6583 12.8015 21.6583 12.1355C21.6583 11.4695 22.1982 10.9296 22.8642 10.9296C23.5301 10.9296 24.0701 11.4695 24.0701 12.1355C24.0698 12.8015 23.5301 13.3414 22.8642 13.3414Z" fill="#231F20"/>
<path d="M17.5 0C7.83649 0 0 7.83639 0 17.4998C0 27.1631 7.83649 34.9995 17.5 34.9995C27.1635 34.9995 35 27.1631 35 17.4998C35 7.83639 27.1635 0 17.5 0ZM27.4882 21.6427C27.4396 22.7124 27.2695 23.4427 27.0212 24.0819C26.4991 25.4317 25.4321 26.4988 24.0823 27.0208C23.4433 27.2691 22.7127 27.439 21.6432 27.4878C20.5716 27.5367 20.2293 27.5485 17.5003 27.5485C14.771 27.5485 14.4289 27.5367 13.357 27.4878C12.2876 27.439 11.557 27.2691 10.918 27.0208C10.2472 26.7685 9.64001 26.373 9.13799 25.8617C8.6269 25.3599 8.23143 24.7524 7.97909 24.0819C7.73075 23.4429 7.56065 22.7124 7.51205 21.6429C7.46265 20.5711 7.45117 20.2288 7.45117 17.4998C7.45117 14.7708 7.46265 14.4284 7.51179 13.3569C7.56039 12.2872 7.73022 11.5569 7.97855 10.9176C8.2309 10.2471 8.62663 9.63961 9.13799 9.13787C9.63974 8.62652 10.2472 8.23105 10.9177 7.97871C11.557 7.73038 12.2873 7.56055 13.357 7.51169C14.4286 7.46282 14.771 7.45107 17.5 7.45107C20.229 7.45107 20.5714 7.46282 21.643 7.51195C22.7127 7.56055 23.443 7.73038 24.0823 7.97845C24.7528 8.23078 25.3603 8.62652 25.8623 9.13787C26.3734 9.63988 26.7691 10.2471 27.0212 10.9176C27.2698 11.5569 27.4396 12.2872 27.4885 13.3569C27.5373 14.4284 27.5488 14.7708 27.5488 17.4998C27.5488 20.2288 27.5373 20.5711 27.4882 21.6427Z" fill="#231F20"/>
</svg>
