<svg width="35" height="35" viewBox="0 0 35 35" fill="none" xmlns="http://www.w3.org/2000/svg">
<path d="M15.0742 20.3231L19.9282 17.5069L15.0742 14.677V20.3231Z" fill="#231F20"/>
<path d="M17.5 0C14.0388 0 10.6554 1.02636 7.77753 2.94928C4.89967 4.87221 2.65665 7.60533 1.33212 10.803C0.00758243 14.0007 -0.338976 17.5194 0.336265 20.9141C1.01151 24.3087 2.67822 27.4269 5.12564 29.8744C7.57306 32.3218 10.6913 33.9885 14.0859 34.6637C17.4806 35.339 20.9993 34.9924 24.197 33.6679C27.3947 32.3434 30.1278 30.1003 32.0507 27.2225C33.9737 24.3446 35 20.9612 35 17.5C35 12.8587 33.1563 8.40752 29.8744 5.12563C26.5925 1.84374 22.1413 0 17.5 0ZM26.7105 20.597C26.7108 21.0547 26.6209 21.508 26.446 21.931C26.2711 22.3539 26.0145 22.7383 25.6909 23.062C25.3674 23.3858 24.9832 23.6426 24.5604 23.8178C24.1376 23.993 23.6844 24.0832 23.2267 24.0832H11.7734C11.3157 24.0832 10.8624 23.993 10.4396 23.8178C10.0168 23.6426 9.63261 23.3858 9.30907 23.062C8.98553 22.7383 8.72896 22.3539 8.55402 21.931C8.37907 21.508 8.28918 21.0547 8.28948 20.597V14.403C8.28918 13.9453 8.37907 13.492 8.55402 13.069C8.72896 12.6461 8.98553 12.2617 9.30907 11.938C9.63261 11.6142 10.0168 11.3574 10.4396 11.1822C10.8624 11.007 11.3157 10.9168 11.7734 10.9168H23.2267C23.6844 10.9168 24.1376 11.007 24.5604 11.1822C24.9832 11.3574 25.3674 11.6142 25.6909 11.938C26.0145 12.2617 26.2711 12.6461 26.446 13.069C26.6209 13.492 26.7108 13.9453 26.7105 14.403V20.597Z" fill="#231F20"/>
</svg>
