<svg width="31" height="27" viewBox="0 0 31 27" fill="none" xmlns="http://www.w3.org/2000/svg">
<path d="M11.7449 25.4999C12.4362 25.4999 12.9966 24.9883 12.9966 24.3571C12.9966 23.7259 12.4362 23.2142 11.7449 23.2142C11.0536 23.2142 10.4932 23.7259 10.4932 24.3571C10.4932 24.9883 11.0536 25.4999 11.7449 25.4999Z" fill="white" stroke="#231F20" stroke-width="1.5" stroke-linecap="round" stroke-linejoin="round"/>
<path d="M25.5136 25.4999C26.2049 25.4999 26.7653 24.9883 26.7653 24.3571C26.7653 23.7259 26.2049 23.2142 25.5136 23.2142C24.8223 23.2142 24.2619 23.7259 24.2619 24.3571C24.2619 24.9883 24.8223 25.4999 25.5136 25.4999Z" fill="white" stroke="#231F20" stroke-width="1.5" stroke-linecap="round" stroke-linejoin="round"/>
<path d="M1.73132 1.5H6.73812L10.0927 16.8029C10.2071 17.329 10.5206 17.8017 10.9783 18.1381C11.436 18.4744 12.0086 18.6531 12.5961 18.6429H24.7626C25.35 18.6531 25.9227 18.4744 26.3804 18.1381C26.838 17.8017 27.1515 17.329 27.266 16.8029L29.2687 7.21429H7.98982" fill="white"/>
<path d="M1.73132 1.5H6.73812L10.0927 16.8029C10.2071 17.329 10.5206 17.8017 10.9783 18.1381C11.436 18.4744 12.0086 18.6531 12.5961 18.6429H24.7626C25.35 18.6531 25.9227 18.4744 26.3804 18.1381C26.838 17.8017 27.1515 17.329 27.266 16.8029L29.2687 7.21429H7.98982" stroke="#231F20" stroke-width="1.5" stroke-linecap="round" stroke-linejoin="round"/>
</svg>
