<svg width="24" height="21" viewBox="0 0 24 21" fill="none" xmlns="http://www.w3.org/2000/svg">
<path d="M20.8397 2.99586C20.329 2.48486 19.7226 2.07951 19.0551 1.80294C18.3876 1.52638 17.6722 1.38403 16.9497 1.38403C16.2273 1.38403 15.5118 1.52638 14.8444 1.80294C14.1769 2.07951 13.5705 2.48486 13.0597 2.99586L11.9997 4.05586L10.9397 2.99586C9.90804 1.96417 8.50877 1.38457 7.04974 1.38457C5.5907 1.38457 4.19143 1.96417 3.15974 2.99586C2.12805 4.02755 1.54845 5.42683 1.54845 6.88586C1.54845 8.34489 2.12805 9.74417 3.15974 10.7759L4.21974 11.8359L11.9997 19.6159L19.7797 11.8359L20.8397 10.7759C21.3507 10.2651 21.7561 9.65867 22.0327 8.99121C22.3092 8.32375 22.4516 7.60835 22.4516 6.88586C22.4516 6.16337 22.3092 5.44796 22.0327 4.7805C21.7561 4.11304 21.3507 3.50661 20.8397 2.99586Z" fill="#FFD530" stroke="#231F20" stroke-width="2" stroke-linecap="round" stroke-linejoin="round"/>
</svg>
