<svg width="32" height="32" viewBox="0 0 32 32" fill="none" xmlns="http://www.w3.org/2000/svg">
<g clip-path="url(#clip0_1171_5256)">
<path d="M28.4763 25.783L21.7037 19.0105H15.1128V15.2139H21.7547C22.7901 15.2139 23.6295 14.3746 23.6295 13.3391C23.6295 12.3038 22.7901 11.4644 21.7547 11.4644H15.1128V9.67574C15.1128 8.65419 14.3118 7.79068 13.2907 7.76269C12.2312 7.73363 11.3633 8.58383 11.3633 9.63675V21.5102C11.3633 22.2005 11.9228 22.76 12.6131 22.76H20.1506L25.825 28.4344C26.5571 29.1665 27.7442 29.1665 28.4763 28.4344C29.2083 27.7022 29.2083 26.5152 28.4763 25.783Z" fill="black"/>
<path d="M16.2319 3.65252C16.6086 2.05854 15.6219 0.460928 14.028 0.0841413C12.434 -0.292646 10.8364 0.694079 10.4596 2.28805C10.0828 3.88202 11.0695 5.47964 12.6635 5.85643C14.2575 6.23321 15.8551 5.24649 16.2319 3.65252Z" fill="black"/>
<path d="M20.6229 25.8818C19.1632 28.4157 16.4265 30.1252 13.2981 30.1252C8.64056 30.1252 4.85131 26.336 4.85131 21.6784C4.85131 18.3899 6.7405 15.5347 9.49032 14.14V12.085C5.67808 13.6035 2.97656 17.3313 2.97656 21.6784C2.97656 27.3697 7.60682 31.9999 13.2981 31.9999C16.9409 31.9999 20.1488 30.103 21.9864 27.2451L20.6229 25.8818Z" fill="black"/>
</g>
<defs>
<clipPath id="clip0_1171_5256">
<rect width="32" height="32" fill="white"/>
</clipPath>
</defs>
</svg>
