<svg width="56" height="56" viewBox="0 0 56 56" fill="none" xmlns="http://www.w3.org/2000/svg">
<circle cx="28" cy="28.2363" r="26.75" stroke="#231F20" stroke-width="1.5"/>
<path d="M37.4299 28.6109L18.8985 28.6109C18.6781 28.6109 18.5 28.4338 18.5 28.2146C18.5 27.9954 18.6781 27.8183 18.8985 27.8183L36.4672 27.8183L34.0486 25.4134C33.893 25.2586 33.893 25.0072 34.0486 24.8524C34.2043 24.6976 34.4571 24.6976 34.6128 24.8524L37.7126 27.9347C37.8271 28.0486 37.8608 28.2183 37.7985 28.3669C37.7362 28.5143 37.5905 28.6109 37.4299 28.6109Z" fill="#231F20"/>
<path d="M34.3251 31.6969C34.223 31.6969 34.1208 31.6585 34.0436 31.5805C33.888 31.4257 33.888 31.1743 34.0436 31.0195L37.1471 27.9335C37.3028 27.7787 37.5556 27.7787 37.7113 27.9335C37.867 28.0883 37.867 28.3397 37.7113 28.4945L34.6078 31.5805C34.5293 31.6585 34.4272 31.6969 34.3251 31.6969Z" fill="#231F20"/>
</svg>
