<svg width="56" height="56" viewBox="0 0 56 56" fill="none" xmlns="http://www.w3.org/2000/svg">
<circle cx="28" cy="28.2363" r="26.75" transform="rotate(-180 28 28.2363)" fill="white" fill-opacity="0.5" stroke="#231F20" stroke-width="1.5"/>
<path d="M18.5701 27.8618L37.1015 27.8618C37.3219 27.8618 37.5 28.0389 37.5 28.2581C37.5 28.4773 37.3219 28.6543 37.1015 28.6543L19.5328 28.6543L21.9514 31.0592C22.107 31.214 22.107 31.4654 21.9514 31.6202C21.7957 31.775 21.5429 31.775 21.3872 31.6202L18.2874 28.5379C18.1729 28.424 18.1392 28.2544 18.2015 28.1057C18.2638 27.9584 18.4095 27.8618 18.5701 27.8618Z" fill="#231F20"/>
<path d="M21.6748 24.7758C21.777 24.7758 21.8791 24.8142 21.9563 24.8922C22.112 25.047 22.112 25.2984 21.9563 25.4532L18.8528 28.5392C18.6971 28.694 18.4443 28.694 18.2886 28.5392C18.133 28.3844 18.133 28.133 18.2886 27.9782L21.3921 24.8922C21.4706 24.8142 21.5727 24.7758 21.6748 24.7758Z" fill="#231F20"/>
</svg>
