<svg width="55" height="55" viewBox="0 0 55 55" fill="none" xmlns="http://www.w3.org/2000/svg">
<circle cx="27.5" cy="27.5" r="27" fill="#231F20" stroke="#262626"/>
<path d="M36.9299 27.8745L18.3985 27.8745C18.1781 27.8745 18 27.6974 18 27.4783C18 27.2591 18.1781 27.082 18.3985 27.082L35.9672 27.082L33.5486 24.6771C33.393 24.5223 33.393 24.2709 33.5486 24.1161C33.7043 23.9613 33.9571 23.9613 34.1128 24.1161L37.2126 27.1984C37.3271 27.3123 37.3608 27.482 37.2985 27.6306C37.2362 27.7779 37.0905 27.8745 36.9299 27.8745Z" fill="white"/>
<path d="M33.8251 30.9605C33.723 30.9605 33.6208 30.9222 33.5436 30.8441C33.388 30.6893 33.388 30.438 33.5436 30.2832L36.6471 27.1972C36.8028 27.0424 37.0556 27.0424 37.2113 27.1972C37.367 27.3519 37.367 27.6033 37.2113 27.7581L34.1078 30.8441C34.0293 30.9222 33.9272 30.9605 33.8251 30.9605Z" fill="white"/>
</svg>
