<svg width="55" height="55" viewBox="0 0 55 55" fill="none" xmlns="http://www.w3.org/2000/svg">
<circle cx="27.5" cy="27.5" r="27" transform="matrix(-1 0 0 1 55 0)" fill="#231F20" stroke="#262626"/>
<path d="M18.0701 27.8745L36.6015 27.8745C36.8219 27.8745 37 27.6974 37 27.4783C37 27.2591 36.8219 27.082 36.6015 27.082L19.0328 27.082L21.4514 24.6771C21.607 24.5223 21.607 24.2709 21.4514 24.1161C21.2957 23.9613 21.0429 23.9613 20.8872 24.1161L17.7874 27.1984C17.6729 27.3123 17.6392 27.482 17.7015 27.6306C17.7638 27.7779 17.9095 27.8745 18.0701 27.8745Z" fill="white"/>
<path d="M21.1748 30.9605C21.277 30.9605 21.3791 30.9222 21.4563 30.8441C21.612 30.6893 21.612 30.438 21.4563 30.2832L18.3528 27.1972C18.1971 27.0424 17.9443 27.0424 17.7886 27.1972C17.633 27.3519 17.633 27.6033 17.7886 27.7581L20.8921 30.8441C20.9706 30.9222 21.0727 30.9605 21.1748 30.9605Z" fill="white"/>
</svg>
