<svg width="30" height="26" viewBox="0 0 30 26" fill="none" xmlns="http://www.w3.org/2000/svg">
<path d="M10.8588 24.8817C11.5501 24.8817 12.1105 24.37 12.1105 23.7388C12.1105 23.1076 11.5501 22.5959 10.8588 22.5959C10.1675 22.5959 9.60712 23.1076 9.60712 23.7388C9.60712 24.37 10.1675 24.8817 10.8588 24.8817Z" stroke="#231F20" stroke-width="1.5" stroke-linecap="round" stroke-linejoin="round"/>
<path d="M24.6275 24.8817C25.3188 24.8817 25.8792 24.37 25.8792 23.7388C25.8792 23.1076 25.3188 22.5959 24.6275 22.5959C23.9362 22.5959 23.3758 23.1076 23.3758 23.7388C23.3758 24.37 23.9362 24.8817 24.6275 24.8817Z" stroke="#231F20" stroke-width="1.5" stroke-linecap="round" stroke-linejoin="round"/>
<path d="M0.845215 0.881592H5.85201L9.20656 16.1845C9.32103 16.7106 9.63453 17.1833 10.0922 17.5197C10.5499 17.856 11.1225 18.0347 11.71 18.0245H23.8765C24.4639 18.0347 25.0366 17.856 25.4942 17.5197C25.9519 17.1833 26.2654 16.7106 26.3799 16.1845L28.3826 6.59588H7.10371" stroke="#231F20" stroke-width="1.5" stroke-linecap="round" stroke-linejoin="round"/>
</svg>
