<svg width="24" height="24" viewBox="0 0 24 24" fill="none" xmlns="http://www.w3.org/2000/svg">
<path fill-rule="evenodd" clip-rule="evenodd" d="M12 2C6.47715 2 2 6.47715 2 12C2 17.5229 6.47715 22 12 22C17.5229 22 22 17.5229 22 12C22 6.47715 17.5229 2 12 2ZM4 12C4 7.58172 7.58172 4 12 4C16.4183 4 20 7.58172 20 12C20 16.4183 16.4183 20 12 20C7.58172 20 4 16.4183 4 12ZM12 6.54545C12 6.24419 12.2238 6 12.5 6C15.5376 6 18 8.6863 18 12C18 15.3137 15.5376 18 12.5 18C12.2238 18 12 17.7558 12 17.4545V6.54545Z" fill="#231F20"/>
</svg>
