<svg width="31" height="26" viewBox="0 0 31 26" fill="none" xmlns="http://www.w3.org/2000/svg">
<path d="M14.8675 4.38665C15.0045 4.60156 15.2413 4.73218 15.4962 4.73346C15.751 4.73473 15.9891 4.60648 16.1283 4.39295C17.4655 2.34093 19.7454 0.983398 22.3181 0.983398C24.315 0.983398 26.1806 1.56885 27.5321 2.6864C28.8658 3.78913 29.7499 5.44936 29.7499 7.73337C29.7499 11.8929 26.9329 15.6895 23.6384 18.6843C20.3713 21.6542 16.7912 23.6932 15.5806 24.3443C15.5252 24.3741 15.4746 24.3741 15.4192 24.3443C14.2086 23.6932 10.6286 21.6542 7.3614 18.6843C4.06684 15.6895 1.24988 11.8929 1.24988 7.73337C1.24988 5.4494 2.13411 3.78917 3.46788 2.68641C4.81956 1.56884 6.68518 0.983398 8.68174 0.983398C11.2174 0.983398 13.5493 2.31888 14.8675 4.38665Z" stroke="#231F20" stroke-width="1.5" stroke-linecap="round" stroke-linejoin="round"/>
</svg>
