<svg width="18" height="16" viewBox="0 0 18 16" fill="none" xmlns="http://www.w3.org/2000/svg">
<path d="M17.5354 6.93333C17.5354 3.1104 14.185 0 10.0688 0C5.95142 0 2.60208 3.1104 2.60848 7.01547C2.61062 7.02933 2.80582 8.41067 2.18288 9.1392C1.91728 9.44853 1.53115 9.6 1.00208 9.6C0.707683 9.6 0.46875 9.83893 0.46875 10.1333C0.46875 11.6117 1.56422 12.6389 3.77435 13.2373C3.71248 13.4379 3.66875 13.6459 3.66875 13.8667C3.66875 15.0432 4.62555 16 5.80208 16C6.97862 16 7.93542 15.0432 7.93542 13.8667C7.93542 13.8485 7.93008 13.8325 7.93008 13.8144C8.59888 13.8485 9.30822 13.8667 10.0688 13.8667C10.0688 15.0432 11.0256 16 12.2021 16C13.3786 16 14.3354 15.0432 14.3354 13.8667C14.3354 13.4752 14.2213 13.1125 14.0368 12.7957C16.1349 11.5669 17.5354 9.4016 17.5354 6.93333ZM13.2464 12.0181C12.937 11.8421 12.584 11.7333 12.2021 11.7333C11.4224 11.7333 10.745 12.1589 10.3738 12.7861C10.2714 12.7904 10.1712 12.8 10.0688 12.8C9.16635 12.8 8.35782 12.7669 7.59515 12.72C7.21542 12.128 6.55515 11.7333 5.80208 11.7333C5.25168 11.7333 4.75355 11.9488 4.37488 12.2923C2.82502 11.9253 1.88315 11.3643 1.61648 10.6112C2.17968 10.5045 2.64048 10.2443 2.99355 9.83253C3.94075 8.7264 3.67515 6.93333 3.66875 6.93333C3.66875 3.69813 6.53915 1.06667 10.0688 1.06667C13.5984 1.06667 16.4688 3.69813 16.4688 6.93333C16.4688 9.1072 15.1685 11.0048 13.2464 12.0181Z" fill="#231F20"/>
<path d="M7.95675 4.8H7.94608C7.65168 4.8 7.41808 5.03893 7.41808 5.33333C7.41808 5.62773 7.66235 5.86667 7.95675 5.86667C8.25115 5.86667 8.49008 5.62773 8.49008 5.33333C8.49008 5.03893 8.25115 4.8 7.95675 4.8Z" fill="#231F20"/>
<path d="M12.2234 4.8H12.2128C11.9184 4.8 11.6848 5.03893 11.6848 5.33333C11.6848 5.62773 11.929 5.86667 12.2234 5.86667C12.5178 5.86667 12.7568 5.62773 12.7568 5.33333C12.7568 5.03893 12.5178 4.8 12.2234 4.8Z" fill="#231F20"/>
<path d="M12.8517 7.47947C12.5626 7.41547 12.28 7.59573 12.2138 7.88267C11.9877 8.89387 11.1056 9.6 10.0688 9.6C9.03302 9.6 8.14982 8.89387 7.92262 7.88267C7.85755 7.59467 7.57275 7.4176 7.28475 7.47947C6.99782 7.54453 6.81755 7.82933 6.88155 8.11733C7.21968 9.6192 8.53062 10.6667 10.0688 10.6667C11.608 10.6667 12.9189 9.61813 13.256 8.11733C13.321 7.82933 13.1397 7.54453 12.8517 7.47947Z" fill="#231F20"/>
</svg>
